<svg width="16" height="16" viewBox="0 0 16 16" fill="none" xmlns="http://www.w3.org/2000/svg">
<path d="M13.7137 4.28738L13.4634 4.72022C13.6711 4.84029 13.9347 4.796 14.0917 4.61468C14.2487 4.43335 14.2549 4.16607 14.1063 3.97774L13.7137 4.28738ZM13.7137 11.7127L14.1062 12.0224C14.2548 11.8341 14.2487 11.5668 14.0917 11.3855C13.9347 11.2041 13.671 11.1598 13.4634 11.2799L13.7137 11.7127ZM11.5714 4.21432C12.2616 4.21432 12.9072 4.39856 13.4634 4.72022L13.9641 3.85454C13.2598 3.44726 12.442 3.21432 11.5714 3.21432V4.21432ZM7.78568 8.00003C7.78568 5.90924 9.4806 4.21432 11.5714 4.21432V3.21432C8.92832 3.21432 6.78568 5.35696 6.78568 8.00003H7.78568ZM11.5714 11.7857C9.4806 11.7857 7.78568 10.0908 7.78568 8.00003H6.78568C6.78568 10.6431 8.92832 12.7857 11.5714 12.7857V11.7857ZM13.4634 11.2799C12.9072 11.6015 12.2616 11.7857 11.5714 11.7857V12.7857C12.442 12.7857 13.2597 12.5528 13.964 12.1456L13.4634 11.2799ZM13.3211 11.4031C12.3131 12.6811 10.7523 13.5 9 13.5V14.5C11.0715 14.5 12.9168 13.5304 14.1062 12.0224L13.3211 11.4031ZM9 13.5C5.96243 13.5 3.5 11.0376 3.5 8H2.5C2.5 11.5899 5.41015 14.5 9 14.5V13.5ZM3.5 8C3.5 4.96243 5.96243 2.5 9 2.5V1.5C5.41015 1.5 2.5 4.41015 2.5 8H3.5ZM9 2.5C10.7524 2.5 12.3132 3.31896 13.3212 4.59701L14.1063 3.97774C12.9169 2.46961 11.0715 1.5 9 1.5V2.5Z" fill="white"/>
</svg>
