<svg width="16" height="16" viewBox="0 0 16 16" fill="none" xmlns="http://www.w3.org/2000/svg">
<g clip-path="url(#clip0_292_13030)">
<path fill-rule="evenodd" clip-rule="evenodd" d="M15.0579 5.21158C15.6474 4.62209 15.6474 3.66634 15.0579 3.07685L12.9232 0.942117C12.3337 0.352628 11.3779 0.352628 10.7884 0.942117L7.94212 3.78842C7.35263 4.37791 7.35263 5.33366 7.94212 5.92315L8.12001 6.10105L8.83159 5.38947L8.65369 5.21158C8.4572 5.01508 8.4572 4.6965 8.65369 4.5L11.5 1.65369C11.6965 1.4572 12.0151 1.4572 12.2116 1.65369L14.3463 3.78842C14.5428 3.98492 14.5428 4.3035 14.3463 4.5L11.5 7.34631C11.3035 7.5428 10.9849 7.5428 10.7884 7.34631L10.6105 7.16841L9.89895 7.87999L10.0768 8.05788C10.6663 8.64737 11.6221 8.64737 12.2116 8.05788L15.0579 5.21158Z" fill="#E3424C"/>
<path fill-rule="evenodd" clip-rule="evenodd" d="M5.21158 15.0579C4.62209 15.6474 3.66634 15.6474 3.07685 15.0579L0.942117 12.9232C0.352628 12.3337 0.352628 11.3779 0.942117 10.7884L3.78842 7.94212C4.37791 7.35263 5.33366 7.35263 5.92315 7.94212L6.10105 8.12001L5.38947 8.83159L5.21158 8.65369C5.01508 8.4572 4.6965 8.4572 4.5 8.65369L1.65369 11.5C1.4572 11.6965 1.4572 12.0151 1.65369 12.2116L3.78842 14.3463C3.98492 14.5428 4.3035 14.5428 4.5 14.3463L7.34631 11.5C7.5428 11.3035 7.5428 10.9849 7.34631 10.7884L7.16841 10.6105L7.87999 9.89895L8.05788 10.0768C8.64737 10.6663 8.64737 11.6221 8.05788 12.2116L5.21158 15.0579Z" fill="#E3424C"/>
<path d="M4.48846 0.0175586C4.83991 -0.0555674 5.20117 0.10639 5.29534 0.379299L5.97739 2.35589C6.07156 2.6288 5.86299 2.90932 5.51154 2.98244C5.16009 3.05557 4.79883 2.89361 4.70466 2.6207L4.02261 0.644112C3.92844 0.371202 4.13701 0.0906846 4.48846 0.0175586Z" fill="#E3424C"/>
<path d="M0.0175586 4.48846C-0.0555674 4.83991 0.10639 5.20117 0.379299 5.29534L2.35589 5.97739C2.6288 6.07156 2.90932 5.86299 2.98244 5.51154C3.05557 5.16009 2.89361 4.79883 2.6207 4.70466L0.644112 4.02261C0.371202 3.92844 0.0906846 4.13701 0.0175586 4.48846Z" fill="#E3424C"/>
<path d="M11.5115 15.9824C11.1601 16.0556 10.7988 15.8936 10.7047 15.6207L10.0226 13.6441C9.92844 13.3712 10.137 13.0907 10.4885 13.0176C10.8399 12.9444 11.2012 13.1064 11.2953 13.3793L11.9774 15.3559C12.0716 15.6288 11.863 15.9093 11.5115 15.9824Z" fill="#E3424C"/>
<path d="M15.9824 11.5115C16.0556 11.1601 15.8936 10.7988 15.6207 10.7047L13.6441 10.0226C13.3712 9.92844 13.0907 10.137 13.0176 10.4885C12.9444 10.8399 13.1064 11.2012 13.3793 11.2953L15.3559 11.9774C15.6288 12.0716 15.9093 11.863 15.9824 11.5115Z" fill="#E3424C"/>
</g>
<defs>
<clipPath id="clip0_292_13030">
<rect width="16" height="16" fill="white"/>
</clipPath>
</defs>
</svg>
