<svg width="16" height="16" viewBox="0 0 16 16" fill="none" xmlns="http://www.w3.org/2000/svg">
<circle cx="8" cy="8" r="6.5" stroke="#848492"/>
<path d="M8.61932 4L8.53407 9.88922H7.54543L7.46023 4H8.61932ZM8.03975 12.412C7.82952 12.412 7.64913 12.3367 7.49856 12.1861C7.34799 12.0355 7.27271 11.8551 7.27271 11.6449C7.27271 11.4347 7.34799 11.2543 7.49856 11.1037C7.64913 10.9531 7.82952 10.8779 8.03975 10.8779C8.24998 10.8779 8.43038 10.9531 8.58094 11.1037C8.73151 11.2543 8.8068 11.4347 8.8068 11.6449C8.8068 11.7841 8.77128 11.9119 8.70026 12.0284C8.63208 12.1449 8.53975 12.2387 8.42327 12.3097C8.30964 12.3779 8.1818 12.412 8.03975 12.412Z" fill="#848492"/>
</svg>
