<svg width="40" height="41" viewBox="0 0 40 41" fill="none" xmlns="http://www.w3.org/2000/svg">
<path d="M11 29V30C11 30.5523 11.4477 31 12 31H28C28.5523 31 29 30.5523 29 30V10C29 9.44772 28.5523 9 28 9H27V28C27 28.5523 26.5523 29 26 29H11Z" fill="url(#paint0_linear_2_2023)"/>
<path d="M15 33V34C15 34.5523 15.4477 35 16 35H32C32.5523 35 33 34.5523 33 34V14C33 13.4477 32.5523 13 32 13H31V32C31 32.5523 30.5523 33 30 33H15Z" fill="url(#paint1_linear_2_2023)"/>
<path d="M7 6C7 5.44772 7.44772 5 8 5H24C24.5523 5 25 5.44772 25 6V26C25 26.5523 24.5523 27 24 27H8C7.44772 27 7 26.5523 7 26V6Z" fill="url(#paint2_linear_2_2023)"/>
<defs>
<linearGradient id="paint0_linear_2_2023" x1="7" y1="19.6113" x2="33" y2="19.6094" gradientUnits="userSpaceOnUse">
<stop stop-color="#F38E78"/>
<stop offset="0.3125" stop-color="#BD7BFF"/>
<stop offset="0.776042" stop-color="#6EBAF5"/>
<stop offset="1" stop-color="#59E4DA"/>
</linearGradient>
<linearGradient id="paint1_linear_2_2023" x1="7" y1="19.6113" x2="33" y2="19.6094" gradientUnits="userSpaceOnUse">
<stop stop-color="#F38E78"/>
<stop offset="0.3125" stop-color="#BD7BFF"/>
<stop offset="0.776042" stop-color="#6EBAF5"/>
<stop offset="1" stop-color="#59E4DA"/>
</linearGradient>
<linearGradient id="paint2_linear_2_2023" x1="7" y1="19.6113" x2="33" y2="19.6094" gradientUnits="userSpaceOnUse">
<stop stop-color="#F38E78"/>
<stop offset="0.3125" stop-color="#BD7BFF"/>
<stop offset="0.776042" stop-color="#6EBAF5"/>
<stop offset="1" stop-color="#59E4DA"/>
</linearGradient>
</defs>
</svg>
