<svg width="16" height="16" viewBox="0 0 16 16" fill="none" xmlns="http://www.w3.org/2000/svg">
<circle cx="8" cy="8" r="6.5" stroke="#848492"/>
<path d="M7.40136 9.73614V9.69025C7.4059 9.20331 7.45125 8.81581 7.53741 8.52772C7.62358 8.23964 7.74603 8.00637 7.90476 7.82792C8.06349 7.64946 8.25397 7.48502 8.47619 7.33461C8.60998 7.24283 8.73016 7.13448 8.83673 7.00956C8.94331 6.88209 9.02721 6.7355 9.08844 6.56979C9.15193 6.40408 9.18367 6.22052 9.18367 6.01912C9.18367 5.76928 9.13152 5.55258 9.02721 5.36902C8.9229 5.18547 8.78345 5.04398 8.60884 4.94455C8.43424 4.84512 8.24036 4.79541 8.02721 4.79541C7.84127 4.79541 7.66213 4.83875 7.4898 4.92543C7.31746 5.01211 7.17347 5.1485 7.05782 5.33461C6.94218 5.52071 6.87528 5.76418 6.85714 6.06501H6C6.01814 5.63161 6.11791 5.26068 6.29932 4.9522C6.48299 4.64372 6.72449 4.4079 7.02381 4.24474C7.3254 4.08158 7.65986 4 8.02721 4C8.4263 4 8.77324 4.08923 9.06803 4.26769C9.36508 4.44614 9.5941 4.69089 9.7551 5.00191C9.91837 5.31294 10 5.6673 10 6.06501C10 6.34544 9.96145 6.59911 9.88435 6.826C9.80952 7.0529 9.70068 7.25558 9.55782 7.43403C9.41723 7.61249 9.24717 7.77055 9.04762 7.90822C8.84807 8.04844 8.68821 8.1963 8.56803 8.35182C8.44785 8.50478 8.36054 8.68706 8.30612 8.89866C8.2517 9.11026 8.22222 9.37412 8.21769 9.69025V9.73614H7.40136ZM7.83673 12C7.66893 12 7.52494 11.9324 7.40476 11.7973C7.28458 11.6622 7.22449 11.5003 7.22449 11.3117C7.22449 11.123 7.28458 10.9611 7.40476 10.826C7.52494 10.6909 7.66893 10.6233 7.83673 10.6233C8.00453 10.6233 8.14853 10.6909 8.26871 10.826C8.38889 10.9611 8.44898 11.123 8.44898 11.3117C8.44898 11.4366 8.42063 11.5513 8.36395 11.6558C8.30952 11.7604 8.23583 11.8445 8.14286 11.9082C8.05215 11.9694 7.95011 12 7.83673 12Z" fill="#848492"/>
</svg>
