<svg width="16" height="16" viewBox="0 0 16 16" fill="none" xmlns="http://www.w3.org/2000/svg">
<g clip-path="url(#clip0_2_799)">
<path fill-rule="evenodd" clip-rule="evenodd" d="M1.02301 4.42724L8 1.00657L14.977 4.42724C14.9821 4.42973 14.9827 4.43009 14.9859 4.43573C14.9916 4.44573 15 4.46817 15 4.5C15 4.53183 14.9916 4.55427 14.9859 4.56427C14.9827 4.56991 14.9821 4.57027 14.977 4.57276L8 7.99343L1.02301 4.57276C1.01795 4.57027 1.0173 4.56991 1.01408 4.56427C1.00836 4.55427 1 4.53183 1 4.5C1 4.46817 1.00836 4.44573 1.01408 4.43573C1.0173 4.43009 1.01794 4.42973 1.02301 4.42724ZM7.58284 0.0973772C7.84766 -0.0324589 8.15234 -0.0324591 8.41716 0.0973769L15.4172 3.52935C16.1943 3.91033 16.1943 5.08967 15.4172 5.47065L8.41716 8.90262C8.15234 9.03246 7.84766 9.03246 7.58284 8.90262L0.582796 5.47065C-0.194264 5.08967 -0.194266 3.91033 0.582794 3.52935L7.58284 0.0973772ZM1.22626 7.38001C1.45962 7.26729 1.55605 6.98954 1.44164 6.75963C1.32723 6.52973 1.0453 6.43473 0.811939 6.54744C-0.270648 7.07036 -0.270645 8.65716 0.811941 9.18008L7.40022 12.3624C7.78014 12.5459 8.21986 12.5459 8.59978 12.3624L15.1881 9.18008C16.2706 8.65716 16.2706 7.07036 15.1881 6.54744C14.9547 6.43473 14.6728 6.52973 14.5584 6.75963C14.4439 6.98954 14.5404 7.26729 14.7737 7.38001C15.1539 7.56362 15.1539 8.16391 14.7737 8.34751L8.18546 11.5298C8.06689 11.5871 7.93311 11.5871 7.81454 11.5298L1.22626 8.34751C0.846148 8.16391 0.846148 7.56362 1.22626 7.38001ZM1.44164 10.2596C1.55605 10.4895 1.45962 10.7673 1.22626 10.88C0.846148 11.0636 0.846148 11.6639 1.22626 11.8475L7.81454 15.0298C7.93311 15.0871 8.06689 15.0871 8.18546 15.0298L14.7737 11.8475C15.1539 11.6639 15.1539 11.0636 14.7737 10.88C14.5404 10.7673 14.4439 10.4895 14.5584 10.2596C14.6728 10.0297 14.9547 9.93473 15.1881 10.0474C16.2706 10.5704 16.2706 12.1572 15.1881 12.6801L8.59978 15.8624C8.21986 16.0459 7.78014 16.0459 7.40022 15.8624L0.811941 12.6801C-0.270645 12.1572 -0.270648 10.5704 0.811939 10.0474C1.0453 9.93473 1.32723 10.0297 1.44164 10.2596ZM9.5 4L8 3L6.5 4L8 5L9.5 4Z" fill="#CCCCCC" fill-opacity="0.5"/>
</g>
<defs>
<clipPath id="clip0_2_799">
<rect width="16" height="16" fill="white"/>
</clipPath>
</defs>
</svg>
