<svg width="40" height="40" viewBox="0 0 40 40" fill="none" xmlns="http://www.w3.org/2000/svg">
<path fill-rule="evenodd" clip-rule="evenodd" d="M4.84211 4.84211V10.0526C4.84211 10.8375 4.20588 11.4737 3.42105 11.4737C2.63623 11.4737 2 10.8375 2 10.0526V3.42105C2 3.372 2.00249 3.32353 2.00734 3.27576C2.08011 2.55918 2.68528 2 3.42105 2H10.0526C10.8375 2 11.4737 2.63623 11.4737 3.42105C11.4737 4.20588 10.8375 4.84211 10.0526 4.84211L4.84211 4.84211ZM19.2012 5.98568C19.5711 5.61571 20.171 5.61571 20.541 5.98568L34.2302 19.6749C34.6002 20.0449 34.6002 20.6447 34.2302 21.0147L20.541 34.7039C20.171 35.0739 19.5711 35.0739 19.2012 34.7039L5.51194 21.0147C5.14197 20.6447 5.14197 20.0449 5.51194 19.6749L19.2012 5.98568ZM4.84211 29.9474V35.1579H10.0526C10.8375 35.1579 11.4737 35.7941 11.4737 36.579C11.4737 37.3638 10.8375 38 10.0526 38H3.42105C2.68528 38 2.08011 37.4408 2.00734 36.7243C2.00249 36.6765 2 36.628 2 36.579V29.9474C2 29.1626 2.63623 28.5263 3.42105 28.5263C4.20588 28.5263 4.84211 29.1626 4.84211 29.9474ZM35.1579 4.84211V10.0526C35.1579 10.8375 35.7941 11.4737 36.5789 11.4737C37.3638 11.4737 38 10.8375 38 10.0526V3.42105C38 3.372 37.9975 3.32353 37.9927 3.27576C37.9199 2.55918 37.3147 2 36.5789 2H29.9474C29.1625 2 28.5263 2.63623 28.5263 3.42105C28.5263 4.20588 29.1625 4.84211 29.9474 4.84211L35.1579 4.84211ZM35.1579 29.9474V35.1579H29.9474C29.1625 35.1579 28.5263 35.7941 28.5263 36.579C28.5263 37.3638 29.1625 38 29.9474 38H36.5789C37.3147 38 37.9199 37.4408 37.9927 36.7243C37.9975 36.6765 38 36.628 38 36.579V29.9474C38 29.1626 37.3638 28.5263 36.5789 28.5263C35.7941 28.5263 35.1579 29.1626 35.1579 29.9474ZM19.2012 10.7225C19.5711 10.3526 20.171 10.3526 20.541 10.7225L29.6867 19.8683C30.0567 20.2382 30.0567 20.8381 29.6867 21.2081L20.541 30.3538C20.171 30.7238 19.5711 30.7238 19.2012 30.3538L10.0554 21.2081C9.68545 20.8381 9.68545 20.2382 10.0554 19.8683L19.2012 10.7225ZM20.541 15.3303C20.171 14.9603 19.5711 14.9603 19.2012 15.3303L14.5988 19.9326C14.2289 20.3026 14.2289 20.9024 14.5989 21.2724L19.2012 25.8747C19.5711 26.2447 20.171 26.2447 20.541 25.8747L25.1433 21.2724C25.5132 20.9024 25.5132 20.3026 25.1433 19.9326L20.541 15.3303Z" fill="url(#paint0_linear_86_7772)"/>
<defs>
<linearGradient id="paint0_linear_86_7772" x1="2" y1="19.5336" x2="38" y2="19.5306" gradientUnits="userSpaceOnUse">
<stop stop-color="#F38E78"/>
<stop offset="0.3125" stop-color="#BD7BFF"/>
<stop offset="0.776042" stop-color="#6EBAF5"/>
<stop offset="1" stop-color="#59E4DA"/>
</linearGradient>
</defs>
</svg>
