<svg width="40" height="40" viewBox="0 0 40 40" fill="none" xmlns="http://www.w3.org/2000/svg">
<path fill-rule="evenodd" clip-rule="evenodd" d="M32.9667 21.4993C33.0035 20.9483 32.5523 20.5 32 20.5H19.7907C19.0082 20.5 18.5289 19.6417 18.9394 18.9755L25.3439 8.58081C25.6336 8.11061 25.4886 7.49134 25.0002 7.23359C22.3724 5.84698 19.3843 5.26845 16.4149 5.58401C13.1131 5.93489 10.021 7.37139 7.62337 9.66835C5.22568 11.9653 3.65789 14.9929 3.16572 18.2766C2.67355 21.5603 3.28482 24.9145 4.90372 27.8135C6.52262 30.7125 9.05764 32.9924 12.1115 34.2958C15.1653 35.5993 18.5653 35.8527 21.7786 35.0163C24.9919 34.1799 27.8369 32.3009 29.8676 29.6739C31.6939 27.3114 32.7688 24.4639 32.9667 21.4993ZM36.9643 16.5008C37.0037 17.0517 36.5523 17.5 36 17.5H24.8228C24.0335 17.5 23.5553 16.6283 23.9794 15.9626L29.9851 6.53604C30.2819 6.07026 30.9025 5.93041 31.346 6.25965C32.9614 7.45914 34.3027 8.99533 35.2742 10.7663C36.2458 12.5372 36.8207 14.4938 36.9643 16.5008Z" fill="url(#paint0_linear_86_7742)"/>
<defs>
<linearGradient id="paint0_linear_86_7742" x1="3" y1="20.1113" x2="36.9667" y2="20.1081" gradientUnits="userSpaceOnUse">
<stop stop-color="#F38E78"/>
<stop offset="0.3125" stop-color="#BD7BFF"/>
<stop offset="0.776042" stop-color="#6EBAF5"/>
<stop offset="1" stop-color="#59E4DA"/>
</linearGradient>
</defs>
</svg>
