<svg width="40" height="40" viewBox="0 0 40 40" fill="none" xmlns="http://www.w3.org/2000/svg">
<path d="M5.16015 19.3747C8.38214 20.8954 11.3623 21.7646 15.0717 21.3528C16.8268 21.1578 18.4732 20.7747 19.9344 20.2554C20.0753 20.2053 20.2159 20.1548 20.3565 20.1043C21.026 19.8637 21.6959 19.6229 22.4039 19.4259C23.9884 18.9499 26.5407 18.6776 29.0704 18.6772H29.0803C31.3832 18.6776 33.8389 19.2639 35.3976 19.8555C35.7753 19.9989 36 20.3163 36 20.6578V31.8022C36 32.8378 34.9767 33.6772 33.7143 33.6772H6.28572C5.02335 33.6772 4 32.8378 4 31.8022V19.8579C4 19.3844 4.66464 19.1317 5.16015 19.3747Z" fill="url(#paint0_linear_86_7765)"/>
<path d="M15.0717 15.1387C11.3623 15.5176 8.38214 14.7179 5.16015 13.3189C4.66464 13.0954 4 13.3278 4 13.7635V16.1774C4 16.4951 4.23077 16.7881 4.60498 16.9335C7.84014 18.1905 10.978 18.9454 14.7196 18.5887C16.6002 18.4093 18.3641 18.0569 19.9297 17.5791C20.0807 17.533 20.2313 17.4866 20.3819 17.4401C21.0993 17.2187 21.817 16.9973 22.5756 16.816C24.2733 16.378 27.0079 16.1276 29.7183 16.1272H29.7289C31.3248 16.1274 32.9891 16.3531 34.4176 16.6598C35.1902 16.8257 36 16.4047 36 15.7984V14.4993C36 14.1852 35.7753 13.8932 35.3976 13.7613C33.8389 13.2169 31.3832 12.6775 29.0803 12.6772H29.0704C26.5407 12.6776 23.9884 12.928 22.4039 13.366C21.6959 13.5473 21.026 13.7687 20.3565 13.9901C20.2159 14.0366 20.0753 14.0831 19.9344 14.1292C18.4732 14.6069 16.8268 14.9594 15.0717 15.1387Z" fill="url(#paint1_linear_86_7765)"/>
<path d="M15.0717 9.96166C11.3623 10.3406 8.38214 9.54091 5.16015 8.14182C4.66464 7.91835 4 8.15078 4 8.58642V9.67746C4 9.9951 4.23077 10.2881 4.60498 10.4335C7.84014 11.6906 10.978 12.4455 14.7196 12.0887C16.6002 11.9094 18.3641 11.5569 19.9297 11.0792C20.0807 11.0331 20.2313 10.9866 20.3819 10.9401C21.0993 10.7188 21.817 10.4973 22.5756 10.316C24.2733 9.87806 27.0079 9.62758 29.7183 9.62726H29.7289C31.3248 9.62745 32.9891 9.85316 34.4176 10.1599C36 10.6773 36 10.2837 36 9.67746V9.32227C36 9.00814 35.7753 8.71614 35.3976 8.58422C33.8389 8.03991 31.3832 7.50051 29.0803 7.50021H29.0704C26.5407 7.50054 23.9884 7.75101 22.4039 8.18894C21.6959 8.37024 21.026 8.59171 20.3565 8.81307C20.2159 8.85955 20.0753 8.90602 19.9344 8.95212C18.4732 9.42989 16.8268 9.78232 15.0717 9.96166Z" fill="url(#paint2_linear_86_7765)"/>
<defs>
<linearGradient id="paint0_linear_86_7765" x1="4" y1="25.9829" x2="36" y2="25.9771" gradientUnits="userSpaceOnUse">
<stop stop-color="#F38E78"/>
<stop offset="0.3125" stop-color="#BD7BFF"/>
<stop offset="0.776042" stop-color="#6EBAF5"/>
<stop offset="1" stop-color="#59E4DA"/>
</linearGradient>
<linearGradient id="paint1_linear_86_7765" x1="4" y1="15.5995" x2="36" y2="15.5851" gradientUnits="userSpaceOnUse">
<stop stop-color="#F38E78"/>
<stop offset="0.3125" stop-color="#BD7BFF"/>
<stop offset="0.776042" stop-color="#6EBAF5"/>
<stop offset="1" stop-color="#59E4DA"/>
</linearGradient>
<linearGradient id="paint2_linear_86_7765" x1="4" y1="9.77804" x2="36.0001" y2="9.75951" gradientUnits="userSpaceOnUse">
<stop stop-color="#F38E78"/>
<stop offset="0.3125" stop-color="#BD7BFF"/>
<stop offset="0.776042" stop-color="#6EBAF5"/>
<stop offset="1" stop-color="#59E4DA"/>
</linearGradient>
</defs>
</svg>
