<svg width="16" height="16" viewBox="0 0 16 16" fill="none" xmlns="http://www.w3.org/2000/svg">
<path fill-rule="evenodd" clip-rule="evenodd" d="M2 1H11V12H2L2 1ZM1 1C1 0.447715 1.44772 0 2 0H11C11.5523 0 12 0.447715 12 1V12C12 12.5523 11.5523 13 11 13H2C1.44771 13 1 12.5523 1 12V1ZM5 2H3V4H5V2ZM8 9H10V11H8V9ZM13.5 0C13.2239 0 13 0.21069 13 0.470588C13 0.730487 13.2239 0.941176 13.5 0.941176C13.7761 0.941176 14 1.15187 14 1.41176V14.5882C14 14.8481 13.7761 15.0588 13.5 15.0588H4.5C4.22386 15.0588 4 14.8481 4 14.5882C4 14.3283 3.77614 14.1176 3.5 14.1176C3.22386 14.1176 3 14.3283 3 14.5882C3 15.3679 3.67157 16 4.5 16H13.5C14.3284 16 15 15.3679 15 14.5882V1.41176C15 0.632068 14.3284 0 13.5 0Z" fill="#CCCCCC" fill-opacity="0.5"/>
</svg>
