<svg width="40" height="41" viewBox="0 0 40 41" fill="none" xmlns="http://www.w3.org/2000/svg">
<g clip-path="url(#clip0_80_4971)">
<circle cx="20" cy="20.5" r="20" fill="#50AF95"/>
<circle cx="20" cy="20.5" r="19" stroke="white" stroke-opacity="0.16" stroke-width="2"/>
<path fill-rule="evenodd" clip-rule="evenodd" d="M22.4416 22.3261C22.3052 22.3363 21.6006 22.3782 20.029 22.3782C18.7789 22.3782 17.8914 22.3408 17.58 22.3261C12.7491 22.1147 9.14324 21.2778 9.14324 20.2758C9.14324 19.2738 12.7491 18.438 17.58 18.2231V21.4926C17.8959 21.5153 18.8005 21.5684 20.0506 21.5684C21.5506 21.5684 22.3018 21.5062 22.437 21.4938V18.2254C27.2577 18.4391 30.8556 19.276 30.8556 20.2758C30.8556 21.2755 27.2589 22.1124 22.437 22.325L22.4416 22.3261ZM22.4416 17.8872V14.9615H29.1692V10.5H10.8524V14.9615H17.5789V17.8861C12.1116 18.136 8 19.2138 8 20.5053C8 21.7969 12.1116 22.8735 17.5789 23.1246V32.5H22.4405V23.1212C27.8953 22.8713 32 21.7946 32 20.5042C32 19.2138 27.8987 18.1372 22.4405 17.8861L22.4416 17.8872Z" fill="white"/>
</g>
<defs>
<clipPath id="clip0_80_4971">
<rect width="40" height="40" fill="white" transform="translate(0 0.5)"/>
</clipPath>
</defs>
</svg>
