<svg width="40" height="41" viewBox="0 0 40 41" fill="none" xmlns="http://www.w3.org/2000/svg">
<g clip-path="url(#clip0_86_7560)">
<circle cx="20" cy="20.5" r="20" fill="url(#paint0_linear_86_7560)"/>
<circle cx="20" cy="20.5" r="19" stroke="white" stroke-opacity="0.16" stroke-width="2"/>
<path fill-rule="evenodd" clip-rule="evenodd" d="M9.00144 23.3394C8.97116 22.976 9.42537 22.8246 9.66761 23.0972C11.9689 25.883 15.6329 27.3364 19.3574 26.5794C24.8078 25.459 28.3506 20.0691 27.2606 14.4975C27.2 14.225 27.5028 14.0433 27.7148 14.225C29.0774 15.5876 30.1069 17.3136 30.6217 19.3424C32.1963 25.3379 28.714 31.4848 22.8093 33.0897C16.9349 34.6946 10.9091 31.1215 9.33453 25.126C9.15284 24.5506 9.062 23.945 9.00144 23.3394Z" fill="url(#paint1_linear_86_7560)"/>
<path fill-rule="evenodd" clip-rule="evenodd" d="M15.3906 20.7049C19.8721 19.4331 22.5065 14.6791 21.265 10.1067C21.2044 9.83422 21.4467 9.62226 21.6889 9.74338C23.5057 10.8032 24.9289 12.5897 25.5345 14.8002C26.776 19.2817 24.1719 23.9449 19.7812 25.2167C15.9962 26.2765 12.1203 24.5202 10.3035 21.1591C10.1521 20.8866 10.4549 20.5535 10.7577 20.6746C12.2111 21.1288 13.816 21.1591 15.3906 20.7049Z" fill="url(#paint2_linear_86_7560)"/>
<path fill-rule="evenodd" clip-rule="evenodd" d="M17.8433 18.3126C20.1143 16.2536 20.3263 12.7108 18.2975 10.3792C17.2982 9.22851 15.9053 8.59262 14.5124 8.50178C14.2399 8.4715 14.1188 8.83486 14.3005 9.04683C16.3293 11.3481 16.1173 14.9212 13.8463 16.9803C13.1498 17.6162 12.302 18.0401 11.4541 18.2521C11.1513 18.3126 11.0302 18.7366 11.3027 18.9183C13.3315 20.19 15.9962 20.0083 17.8433 18.3126Z" fill="url(#paint3_linear_86_7560)"/>
</g>
<defs>
<linearGradient id="paint0_linear_86_7560" x1="8" y1="4" x2="33" y2="37" gradientUnits="userSpaceOnUse">
<stop stop-color="#373755"/>
<stop offset="1" stop-color="#8686A8"/>
</linearGradient>
<linearGradient id="paint1_linear_86_7560" x1="24.6518" y1="21.9625" x2="3.33125" y2="38.1737" gradientUnits="userSpaceOnUse">
<stop stop-color="white"/>
<stop offset="1" stop-color="#636363"/>
</linearGradient>
<linearGradient id="paint2_linear_86_7560" x1="22.2022" y1="16.8037" x2="-2.44228" y2="28.3235" gradientUnits="userSpaceOnUse">
<stop stop-color="white"/>
<stop offset="1" stop-color="#636363"/>
</linearGradient>
<linearGradient id="paint3_linear_86_7560" x1="17.8443" y1="13.6239" x2="1.89429" y2="16.0945" gradientUnits="userSpaceOnUse">
<stop stop-color="white"/>
<stop offset="1" stop-color="#636363"/>
</linearGradient>
<clipPath id="clip0_86_7560">
<rect width="40" height="40" fill="white" transform="translate(0 0.5)"/>
</clipPath>
</defs>
</svg>
